<svg width="19" height="17" viewBox="0 0 19 17" fill="none" xmlns="http://www.w3.org/2000/svg">
    <path d="M16.5761 1.84319C16.1504 1.41736 15.6451 1.07956 15.0889 0.849091C14.5327 0.618623 13.9365 0.5 13.3344 0.5C12.7323 0.5 12.1362 0.618623 11.5799 0.849091C11.0237 1.07956 10.5184 1.41736 10.0927 1.84319L9.20941 2.72652L8.32608 1.84319C7.46633 0.983445 6.30027 0.500446 5.08441 0.500446C3.86855 0.500446 2.70249 0.983445 1.84274 1.84319C0.982999 2.70293 0.5 3.86899 0.5 5.08485C0.5 6.30072 0.982999 7.46678 1.84274 8.32652L2.72608 9.20985L9.20941 15.6932L15.6927 9.20985L16.5761 8.32652C17.0019 7.90089 17.3397 7.39553 17.5702 6.83932C17.8006 6.2831 17.9193 5.68693 17.9193 5.08485C17.9193 4.48278 17.8006 3.88661 17.5702 3.33039C17.3397 2.77418 17.0019 2.26882 16.5761 1.84319Z" stroke="white" stroke-linecap="round" stroke-linejoin="round" />
</svg>