<svg width="25" height="21" viewBox="0 0 103 76" fill="none" xmlns="http://www.w3.org/2000/svg">
    <path d="M26.1124 0.222982C33.9543 -0.0251432 42.2593 0.170477 50.1274 0.179227C55.4362 0.184852 50.3149 6.02298 49.7993 8.15173C49.4293 9.67798 49.2574 10.9755 49.4056 12.6949C49.7412 16.5705 51.6031 20.1536 54.5818 22.6549C57.5393 25.1674 61.3981 26.3574 65.2568 25.9461C69.2012 25.5717 72.8281 23.623 75.3187 20.5417C78.0906 17.0724 79.3418 11.5811 77.6093 7.39236C76.9943 5.90486 75.2818 3.53049 75.3374 1.91362C75.3524 1.48112 75.7312 0.803602 76.0831 0.553602C77.3662 -0.358898 98.5337 0.137364 102.225 0.113614L102.204 24.278C99.6618 24.7149 98.0712 25.1286 95.8699 26.618C92.818 28.6786 90.7124 31.8699 90.0187 35.4861C89.328 39.133 90.1487 42.9036 92.2937 45.933C94.8474 49.5142 98.1224 50.8342 102.249 51.4786C102.238 54.1967 102.426 74.7124 101.997 75.5674L101.077 75.6642C93.1643 75.5861 85.1281 75.688 77.1993 75.6674C75.0812 60.3142 54.4805 58.2374 50.9205 75.7211C42.7455 75.7311 34.2474 75.8574 26.0981 75.673C26.3406 68.1074 26.0143 60.3967 26.1331 52.8174C26.2468 45.5986 22.0193 44.6836 16.5468 48.1005C9.15056 52.7186 -0.0825677 46.6317 0.000557262 38.2105C0.0299323 34.8749 1.4368 31.6992 3.88743 29.4361C6.66805 26.8886 10.8693 25.7111 14.5118 27.1267C16.5155 27.9049 18.5593 29.8605 20.9018 29.893C22.3505 29.9249 23.7474 29.3574 24.7643 28.3249C25.3849 27.6961 25.8137 26.903 25.9993 26.0392C26.4324 24.058 26.2499 18.6911 26.2312 16.4949L26.1124 0.222982Z" fill="#C352BB" />
</svg>